<?xml version="1.0" encoding="UTF-8"?>
<svg version="1.1" xmlns="http://www.w3.org/2000/svg" width="1200" height="1200">
<path d="M0 0 C2.99201587 0.0046087 5.98362289 -0.00222865 8.97558594 -0.02050781 C30.83771419 -0.15258582 52.33791936 0.95365238 74.07446289 3.31567383 C75.01861053 3.41800323 75.96275818 3.52033264 76.93551636 3.62576294 C81.74620069 4.16248507 86.53536923 4.79594213 91.32446289 5.50317383 C92.01795837 5.60416382 92.71145386 5.70515381 93.42596436 5.8092041 C146.36674095 13.58728182 198.14341574 28.70370827 247.07446289 50.31567383 C248.23059082 50.82565918 249.38671875 51.33564453 250.57788086 51.86108398 C292.75353179 70.62594683 332.40614187 94.27571043 369.07446289 122.31567383 C369.71657715 122.80616211 370.35869141 123.29665039 371.02026367 123.80200195 C379.00984346 129.93339443 386.75931442 136.3259514 394.40063477 142.88452148 C396.15473138 144.38430479 397.91842461 145.87220236 399.68383789 147.35864258 C405.72904374 152.46610588 411.55323751 157.63847436 417.07836914 163.31567383 C418.94771464 165.18867754 420.87225973 166.91423412 422.88696289 168.62817383 C430.50097137 175.17622112 437.60650099 182.42165874 444.10961914 190.06958008 C446.26433594 192.53272553 448.49242157 194.91510812 450.73291016 197.30004883 C456.80231719 203.76395437 462.5345553 210.38849253 468.07446289 217.31567383 C469.05574511 218.50725492 470.03894334 219.69725979 471.02368164 220.88598633 C491.25836579 245.3766856 509.25844937 271.76748311 525.07446289 299.31567383 C525.49598633 300.04979492 525.91750977 300.78391602 526.35180664 301.5402832 C529.33085464 306.76057759 532.21934669 312.02675821 535.07446289 317.31567383 C535.53820313 318.16935547 536.00194336 319.02303711 536.47973633 319.90258789 C570.24206922 382.30764809 591.45038381 451.47708751 600.82446289 521.69067383 C600.92569458 522.44112976 601.02692627 523.19158569 601.13122559 523.96478271 C601.85647828 529.40717108 602.49629464 534.85573345 603.07446289 540.31567383 C603.21590225 541.6500499 603.21590225 541.6500499 603.36019897 543.01138306 C605.13244576 560.41622841 605.41919692 577.76617558 605.39013672 595.24121094 C605.38552802 598.2332268 605.39236537 601.22483383 605.41064453 604.21679688 C605.54272253 626.07892513 604.43648434 647.57913029 602.07446289 669.31567383 C601.97213348 670.25982147 601.86980408 671.20396912 601.76437378 672.17672729 C601.22765165 676.98741163 600.59419459 681.77658016 599.88696289 686.56567383 C599.7859729 687.25916931 599.68498291 687.95266479 599.58093262 688.66717529 C591.8028549 741.60795189 576.68642845 793.38462668 555.07446289 842.31567383 C554.56447754 843.47180176 554.05449219 844.62792969 553.52905273 845.8190918 C534.76418989 887.99474272 511.11442629 927.64735281 483.07446289 964.31567383 C482.58397461 964.95778809 482.09348633 965.59990234 481.58813477 966.26147461 C475.45674229 974.2510544 469.06418532 982.00052535 462.50561523 989.6418457 C461.00583193 991.39594231 459.51793436 993.15963555 458.03149414 994.92504883 C452.92403084 1000.97025468 447.75166236 1006.79444845 442.07446289 1012.31958008 C440.20145918 1014.18892558 438.4759026 1016.11347066 436.76196289 1018.12817383 C430.2139156 1025.7421823 422.96847798 1032.84771193 415.32055664 1039.35083008 C412.85741119 1041.50554688 410.47502859 1043.73363251 408.09008789 1045.97412109 C401.62618235 1052.04352813 395.00164419 1057.77576624 388.07446289 1063.31567383 C386.8828818 1064.29695605 385.69287693 1065.28015428 384.50415039 1066.26489258 C360.01345112 1086.49957672 333.62265361 1104.49966031 306.07446289 1120.31567383 C305.3403418 1120.73719727 304.6062207 1121.1587207 303.84985352 1121.59301758 C298.62955913 1124.57206558 293.36337851 1127.46055763 288.07446289 1130.31567383 C287.22078125 1130.77941406 286.36709961 1131.2431543 285.48754883 1131.72094727 C223.08248863 1165.48328016 153.91304921 1186.69159474 83.69946289 1196.06567383 C82.94900696 1196.16690552 82.19855103 1196.26813721 81.425354 1196.37243652 C75.98296563 1197.09768921 70.53440327 1197.73750557 65.07446289 1198.31567383 C63.74008682 1198.45711319 63.74008682 1198.45711319 62.37875366 1198.60140991 C44.97390831 1200.37365669 27.62396114 1200.66040786 10.14892578 1200.63134766 C7.15690992 1200.62673896 4.16530289 1200.6335763 1.17333984 1200.65185547 C-20.68878841 1200.78393347 -42.18899357 1199.67769527 -63.92553711 1197.31567383 C-64.86968475 1197.21334442 -65.8138324 1197.11101501 -66.78659058 1197.00558472 C-71.59727491 1196.46886258 -76.38644344 1195.83540553 -81.17553711 1195.12817383 C-81.86903259 1195.02718384 -82.56252808 1194.92619385 -83.27703857 1194.82214355 C-136.21781517 1187.04406584 -187.99448996 1171.92763939 -236.92553711 1150.31567383 C-238.08166504 1149.80568848 -239.23779297 1149.29570313 -240.42895508 1148.77026367 C-282.604606 1130.00540083 -322.25721609 1106.35563723 -358.92553711 1078.31567383 C-359.8887085 1077.57994141 -359.8887085 1077.57994141 -360.87133789 1076.8293457 C-368.86091768 1070.69795323 -376.61038864 1064.30539625 -384.25170898 1057.74682617 C-386.00580559 1056.24704287 -387.76949883 1054.7591453 -389.53491211 1053.27270508 C-395.58011796 1048.16524178 -401.40431173 1042.9928733 -406.92944336 1037.31567383 C-408.79878886 1035.44267011 -410.72333394 1033.71711353 -412.73803711 1032.00317383 C-420.35204558 1025.45512654 -427.45757521 1018.20968892 -433.96069336 1010.56176758 C-436.11541016 1008.09862213 -438.34349579 1005.71623953 -440.58398438 1003.33129883 C-446.65339141 996.86739328 -452.38562952 990.24285513 -457.92553711 983.31567383 C-458.90681933 982.12409274 -459.89001756 980.93408786 -460.87475586 979.74536133 C-481.10944001 955.25466206 -499.10952359 928.86386454 -514.92553711 901.31567383 C-515.34706055 900.58155273 -515.76858398 899.84743164 -516.20288086 899.09106445 C-519.18192886 893.87077007 -522.07042091 888.60458945 -524.92553711 883.31567383 C-525.38927734 882.46199219 -525.85301758 881.60831055 -526.33081055 880.72875977 C-560.09314344 818.32369957 -581.30145802 749.15426015 -590.67553711 678.94067383 C-590.7767688 678.1902179 -590.87800049 677.43976196 -590.9822998 676.66656494 C-591.70755249 671.22417657 -592.34736885 665.77561421 -592.92553711 660.31567383 C-593.06697647 658.98129776 -593.06697647 658.98129776 -593.21127319 657.6199646 C-594.98351998 640.21511925 -595.27027114 622.86517208 -595.24121094 605.39013672 C-595.23660224 602.39812085 -595.24343959 599.40651383 -595.26171875 596.41455078 C-595.39379675 574.55242253 -594.28755855 553.05221736 -591.92553711 531.31567383 C-591.8232077 530.37152618 -591.7208783 529.42737854 -591.615448 528.45462036 C-591.07872586 523.64393603 -590.44526881 518.85476749 -589.73803711 514.06567383 C-589.63704712 513.37217834 -589.53605713 512.67868286 -589.43200684 511.96417236 C-581.65392912 459.02339577 -566.53750267 407.24672097 -544.92553711 358.31567383 C-544.41555176 357.1595459 -543.90556641 356.00341797 -543.38012695 354.81225586 C-524.61526411 312.63660493 -500.96550051 272.98399484 -472.92553711 236.31567383 C-472.43504883 235.67355957 -471.94456055 235.03144531 -471.43920898 234.36987305 C-465.30781651 226.38029326 -458.91525954 218.6308223 -452.35668945 210.98950195 C-450.85690615 209.23540534 -449.36900858 207.47171211 -447.88256836 205.70629883 C-442.77510506 199.66109298 -437.60273658 193.83689921 -431.92553711 188.31176758 C-430.0525334 186.44242207 -428.32697682 184.51787699 -426.61303711 182.50317383 C-420.06498982 174.88916535 -412.8195522 167.78363573 -405.17163086 161.28051758 C-402.70848541 159.12580077 -400.32610281 156.89771515 -397.94116211 154.65722656 C-391.47725656 148.58781953 -384.85271841 142.85558142 -377.92553711 137.31567383 C-376.73395602 136.33439161 -375.54395114 135.35119337 -374.35522461 134.36645508 C-349.86452534 114.13177093 -323.47372782 96.13168735 -295.92553711 80.31567383 C-295.19141602 79.89415039 -294.45729492 79.47262695 -293.70092773 79.03833008 C-288.48063335 76.05928208 -283.21445273 73.17079002 -277.92553711 70.31567383 C-277.07185547 69.85193359 -276.21817383 69.38819336 -275.33862305 68.91040039 C-212.93356285 35.1480675 -143.76412343 13.93975291 -73.55053711 4.56567383 C-72.80008118 4.46444214 -72.04962524 4.36321045 -71.27642822 4.25891113 C-65.83403985 3.53365844 -60.38547749 2.89384208 -54.92553711 2.31567383 C-53.59116104 2.17423447 -53.59116104 2.17423447 -52.22982788 2.02993774 C-34.82498253 0.25769096 -17.47503536 -0.0290602 0 0 Z " fill="#293040" transform="translate(594.925537109375,-0.315673828125)"/>
<path d="M0 0 C0.84433594 0.66257812 1.68867187 1.32515625 2.55859375 2.0078125 C3.48671875 2.70648438 4.41484375 3.40515625 5.37109375 4.125 C6.95562469 5.33697753 8.53923943 6.55015606 10.12109375 7.765625 C13.93970907 10.46021243 16.51960437 11.38198888 21.2421875 11.2578125 C22.13478271 11.23976562 23.02737793 11.22171875 23.94702148 11.203125 C24.62321533 11.17992187 25.29940918 11.15671875 25.99609375 11.1328125 C26.96112975 31.53218894 26.96112975 31.53218894 22.87109375 39.2578125 C17.80491294 44.32399331 12.03276928 45.5859235 5.05638123 45.66151428 C4.0761348 45.65333176 3.09588837 45.64514923 2.0859375 45.63671875 C0.52003624 45.6508506 0.52003624 45.6508506 -1.07749939 45.66526794 C-4.40733482 45.69378686 -7.73645922 45.69700614 -11.06640625 45.6953125 C-32.54671872 45.71929856 -53.39778011 46.88260674 -74.25390625 52.3828125 C-75.43082031 52.68654785 -76.60773438 52.9902832 -77.8203125 53.30322266 C-87.81716679 55.95129649 -97.46842991 59.13659985 -107.00390625 63.1328125 C-108.16067871 63.61524414 -108.16067871 63.61524414 -109.34082031 64.10742188 C-131.89527104 73.63799076 -153.14344967 85.56034118 -174.0078125 98.31152344 C-178.71029544 101.1701058 -183.44997 103.96449363 -188.19140625 106.7578125 C-189.08102051 107.28487793 -189.97063477 107.81194336 -190.88720703 108.35498047 C-195.50706296 111.08928371 -200.14328924 113.78922199 -204.80859375 116.4453125 C-215.46998595 122.55050043 -225.0567308 128.68674119 -234.00390625 137.1328125 C-235.40754708 138.44141162 -236.81119327 139.75000498 -238.21484375 141.05859375 C-241.16792822 143.82252302 -244.10756894 146.59991192 -247.0390625 149.38671875 C-250.93986759 153.08809806 -254.92498264 156.6784751 -258.94140625 160.25390625 C-261.44986244 162.53907184 -263.82394984 164.93619836 -266.19799805 167.359375 C-267.95636123 169.08612235 -269.77338231 170.68668081 -271.6484375 172.28515625 C-276.3218858 176.35107773 -280.69878766 180.68046684 -285.06640625 185.0703125 C-285.83017578 185.83021484 -286.59394531 186.59011719 -287.38085938 187.37304688 C-292.12947437 192.12978611 -296.63464743 197.02726151 -301.00390625 202.1328125 C-301.87273437 203.12023437 -302.7415625 204.10765625 -303.63671875 205.125 C-334.64425179 240.99264793 -357.27692313 285.05207421 -362.38671875 332.58984375 C-362.64373026 334.89585913 -362.90098652 337.20184724 -363.15844727 339.5078125 C-363.29413116 340.73685303 -363.42981506 341.96589355 -363.5696106 343.23217773 C-364.26709652 349.49666099 -364.99473985 355.7576234 -365.71925163 362.01902771 C-366.24063803 366.53170904 -366.75776827 371.0448797 -367.27554989 375.55797577 C-367.71590217 379.3953028 -368.15699751 383.23254112 -368.59985352 387.06958008 C-369.03802992 390.86653661 -369.47439198 394.66369731 -369.90927124 398.46103287 C-370.07838881 399.93625649 -370.24800112 401.41142349 -370.41812134 402.88653183 C-371.21518703 409.80691646 -371.99489213 416.72381678 -372.57617188 423.66650391 C-372.69804115 425.10765816 -372.69804115 425.10765816 -372.82237244 426.57792664 C-372.95957526 428.27229114 -373.08577355 429.96761329 -373.1967926 431.66389465 C-373.92818779 440.8453276 -378.02653139 448.62682653 -382.3515625 456.625 C-387.63258264 466.95989963 -384.94154509 479.58241498 -383.21875 490.609375 C-383.03880997 491.82305756 -382.85886993 493.03674011 -382.67347717 494.28720093 C-382.10568347 498.11224496 -381.5248833 501.93513182 -380.94140625 505.7578125 C-380.35524773 509.6163086 -379.77216322 513.47514777 -379.19862366 517.33554077 C-378.84344038 519.72504635 -378.48095211 522.11348021 -378.1103363 524.50064087 C-377.95009476 525.57631317 -377.78985321 526.65198547 -377.62475586 527.76025391 C-377.48041611 528.70397858 -377.33607635 529.64770325 -377.18736267 530.62002563 C-377.00774669 533.08021032 -377.24927768 534.8019717 -378.00390625 537.1328125 C-378.99390625 536.4728125 -379.98390625 535.8128125 -381.00390625 535.1328125 C-383.54621472 534.71601953 -383.54621472 534.71601953 -386.00390625 535.1328125 C-388.5306308 538.92289932 -388.4473187 540.62478592 -388.00390625 545.1328125 C-387.03466386 548.08245284 -385.86389805 550.63873259 -384.00390625 553.1328125 C-381.63212743 554.54083941 -381.63212743 554.54083941 -379.00390625 554.1328125 C-377.31405914 553.17250291 -375.64391487 552.17595655 -374.00390625 551.1328125 C-368.55575944 561.16381221 -364.16557951 571.51865913 -360.00390625 582.1328125 C-355.83335737 592.74285667 -351.56475407 603.15995135 -346.00390625 613.1328125 C-345.20146484 614.586875 -345.20146484 614.586875 -344.3828125 616.0703125 C-339.98763615 623.49046633 -334.29705832 629.49190041 -328.36962891 635.68603516 C-326.58451788 637.57709127 -324.88331073 639.5332874 -323.19140625 641.5078125 C-320.54180617 644.57441986 -317.73751605 647.42334486 -314.84472656 650.25952148 C-313.07185179 652.06366845 -311.42381306 653.92488981 -309.78125 655.84765625 C-306.0461546 660.14187992 -302.10122073 664.18384314 -298.06640625 668.1953125 C-297.40189453 668.86369141 -296.73738281 669.53207031 -296.05273438 670.22070312 C-292.13451101 674.13132567 -288.09828039 677.83110944 -283.90795898 681.44702148 C-280.97277231 684.04574748 -278.24242257 686.82999985 -275.50390625 689.6328125 C-271.39047393 693.79841865 -267.2264705 697.80151315 -262.76171875 701.59375 C-260.34586378 703.70896524 -258.12709228 705.99763852 -255.87939453 708.28857422 C-254.06066909 710.07699546 -252.18674186 711.75033104 -250.25390625 713.4140625 C-246.24870233 716.89700842 -242.36283657 720.48924836 -238.50390625 724.1328125 C-237.10556279 725.44931864 -235.70712241 726.76572185 -234.30859375 728.08203125 C-233.59928711 728.75024902 -232.88998047 729.4184668 -232.15917969 730.10693359 C-230.03170812 732.10667975 -227.89793052 734.09944005 -225.76171875 736.08984375 C-219.12086495 742.28215959 -212.56524916 748.51667913 -206.1875 754.98046875 C-203.46081009 757.66813627 -200.61212643 760.18177782 -197.6953125 762.66015625 C-196.00390625 764.1328125 -196.00390625 764.1328125 -194.6640625 765.828125 C-191.41951164 768.37796026 -187.25995144 767.1090124 -183.37890625 766.71484375 C-177.30433496 765.66726143 -172.2181893 763.71355495 -168.00390625 759.1328125 C-167.33426339 766.90066964 -167.33426339 766.90066964 -170.25390625 770.4453125 C-172.43781487 772.57958683 -174.55038905 774.34510018 -177.00390625 776.1328125 C-152.12813897 790.5962465 -128.16824804 800.24543261 -99.2383728 802.39321899 C-74.66842754 804.23735522 -50.71490386 807.52199214 -26.57177734 812.41162109 C-23.33890751 813.06509704 -20.10396086 813.70603611 -16.8671875 814.33984375 C-15.10021181 814.68725286 -13.33328078 815.03488924 -11.56640625 815.3828125 C-10.7990918 815.53355225 -10.03177734 815.68429199 -9.24121094 815.83959961 C-5.15167426 816.65686307 -1.14230359 817.59194595 2.86352539 818.75683594 C8.78677927 819.80111882 14.03181323 818.79146424 19.7421875 817.24609375 C25.97290987 815.67049941 32.06591531 814.65702569 38.46875 814.11328125 C39.25696136 814.04432648 40.04517273 813.9753717 40.85726929 813.90432739 C44.07627198 813.63123992 47.29542246 813.37310956 50.51831055 813.15014648 C62.70125793 812.55299159 62.70125793 812.55299159 72.44335938 805.84960938 C74.23815193 803.86517837 76.11347578 802.75567375 78.43359375 801.4453125 C81.2489694 799.43432989 81.9053292 798.51500485 82.71875 795.08984375 C82.9692183 792.0806964 83.07421192 789.15012698 82.99609375 786.1328125 C84.99609375 786.1328125 84.99609375 786.1328125 87.12109375 788.1328125 C87.73984375 788.7928125 88.35859375 789.4528125 88.99609375 790.1328125 C88.68526503 788.38251488 88.37236196 786.63258556 88.05859375 784.8828125 C87.88457031 783.90828125 87.71054687 782.93375 87.53125 781.9296875 C87.09229646 779.63559455 86.59260783 777.38989279 85.99609375 775.1328125 C90.29126334 778.21495906 92.94164073 781.54183538 95.80859375 785.8828125 C96.41864258 786.78580078 96.41864258 786.78580078 97.04101562 787.70703125 C98.03305545 789.17758441 99.01557263 790.65455409 99.99609375 792.1328125 C100.61484375 791.1840625 101.23359375 790.2353125 101.87109375 789.2578125 C103.99609375 786.1328125 103.99609375 786.1328125 105.99609375 784.1328125 C108.12109375 784.5078125 108.12109375 784.5078125 109.99609375 785.1328125 C109.99609375 785.7928125 109.99609375 786.4528125 109.99609375 787.1328125 C110.65609375 787.1328125 111.31609375 787.1328125 111.99609375 787.1328125 C112.32609375 783.1728125 112.65609375 779.2128125 112.99609375 775.1328125 C117.13802328 777.20377727 117.28753182 777.34956823 118.99609375 781.1328125 C119.65609375 781.4628125 120.31609375 781.7928125 120.99609375 782.1328125 C121.26421875 781.0396875 121.53234375 779.9465625 121.80859375 778.8203125 C123.40034907 773.87749335 123.40034907 773.87749335 125.99609375 772.1328125 C128.64605701 771.9156024 131.04685933 771.84929696 133.68359375 771.9453125 C134.38548828 771.95884766 135.08738281 771.97238281 135.81054688 771.98632812 C137.53939204 772.02161068 139.2678414 772.07541667 140.99609375 772.1328125 C141.32609375 775.4328125 141.65609375 778.7328125 141.99609375 782.1328125 C149.14073044 780.89026699 153.60730483 776.79514497 158.99609375 772.1328125 C163.99609375 777.1328125 163.99609375 777.1328125 165.3984375 778.75390625 C168.0701354 781.0597971 170.41672175 780.92419148 173.84448242 780.75317383 C177.6511719 780.0038673 180.48383235 778.38510479 183.71875 776.34765625 C184.36411209 775.95043869 185.00947418 775.55322113 185.6743927 775.14396667 C193.99308985 769.97214489 202.08817339 764.45695584 210.18359375 758.9453125 C211.83169099 757.82700677 213.47988518 756.70884391 215.12817383 755.59082031 C232.61793319 743.7143799 249.9172363 731.59386092 266.99609375 719.1328125 C267.75212891 718.58157715 268.50816406 718.0303418 269.28710938 717.46240234 C281.98691714 708.1889749 294.51870757 698.70284656 306.99609375 689.1328125 C307.97497559 688.38209473 307.97497559 688.38209473 308.97363281 687.61621094 C313.69227695 683.99504629 318.40321849 680.36394319 323.109375 676.7265625 C331.67635755 670.11216483 340.32552716 663.61069409 348.99609375 657.1328125 C350.25695889 661.07301608 349.99609375 663.60861549 349.99609375 668.1328125 C351.31609375 663.5128125 352.63609375 658.8928125 353.99609375 654.1328125 C357.99609375 654.1328125 357.99609375 654.1328125 361.37109375 654.5703125 C365.20272465 654.46978975 365.20272465 654.46978975 367.87109375 651.4453125 C370.92930144 647.43548167 373.69769101 643.20620988 376.54296875 639.04321289 C383.83766731 628.46438025 392.78417528 619.55693876 403.99609375 613.1328125 C390.69498711 654.7293426 369.4007236 695.39926243 342.99609375 730.1328125 C342.52075195 730.75978027 342.04541016 731.38674805 341.55566406 732.03271484 C335.51947041 739.95073094 329.1534705 747.55895125 322.625 755.07421875 C321.95416382 755.85744507 321.95416382 755.85744507 321.26977539 756.65649414 C320.10330695 758.00854219 318.91031071 759.33758547 317.71484375 760.6640625 C315.69616999 763.56361209 315.32429005 765.58099036 314.93359375 769.0703125 C314.07887935 775.07541798 313.06914454 779.21524052 308.49609375 783.4453125 C303.53207296 786.79602653 298.27969702 786.39906115 292.5078125 786.47460938 C286.94622354 786.68549855 283.63850931 788.05629108 278.99609375 791.1328125 C279.50321408 794.85169489 280.1121759 797.86735489 281.99609375 801.1328125 C281.43921875 800.8440625 280.88234375 800.5553125 280.30859375 800.2578125 C279.54546875 799.8865625 278.78234375 799.5153125 277.99609375 799.1328125 C277.29484375 798.7615625 276.59359375 798.3903125 275.87109375 798.0078125 C266.00664533 795.00558907 257.21283938 798.69189413 247.99609375 802.1328125 C248.49973313 806.44005671 249.75473919 808.30045261 252.80859375 811.3203125 C257.83691614 816.74584528 261.1851982 822.70676401 261.24609375 830.2578125 C261.16359375 831.2065625 261.08109375 832.1553125 260.99609375 833.1328125 C256.62287355 829.71956747 253.06675873 826.06433 249.51171875 821.8046875 C248.0821844 820.02490082 248.0821844 820.02490082 245.99609375 819.1328125 C234.22954543 826.17491339 224.93575166 835.86702733 215.99609375 846.1328125 C214.19356704 848.18352764 212.37873221 850.22272811 210.55859375 852.2578125 C209.73488281 853.18851563 208.91117188 854.11921875 208.0625 855.078125 C205.99609375 857.1328125 205.99609375 857.1328125 203.99609375 857.1328125 C201.74439752 861.70027762 201.57185396 865.95558477 201.37109375 870.9453125 C201.33242188 871.73357422 201.29375 872.52183594 201.25390625 873.33398438 C201.16020531 875.2665663 201.07708596 877.19965626 200.99609375 879.1328125 C199.75472656 879.10960937 198.51335938 879.08640625 197.234375 879.0625 C195.59245395 879.04373519 193.95052637 879.02553575 192.30859375 879.0078125 C191.49197266 878.99105469 190.67535156 878.97429688 189.83398438 878.95703125 C183.64652598 878.85886263 183.64652598 878.85886263 177.99609375 881.1328125 C174.54637122 885.23744924 174.46902159 889.31620527 174.30859375 894.4453125 C174.25735352 895.55616211 174.25735352 895.55616211 174.20507812 896.68945312 C174.12315821 898.50339414 174.05793553 900.31807603 173.99609375 902.1328125 C169.7829189 901.62810926 167.89334168 900.51195597 164.99609375 897.4453125 C164.31289063 896.72859375 163.6296875 896.011875 162.92578125 895.2734375 C161.27817045 893.44572349 159.6815127 891.59736164 158.12109375 889.6953125 C156.25445334 887.09406731 156.25445334 887.09406731 153.99609375 886.1328125 C146.79109678 885.61816986 140.33780884 887.21589907 133.37109375 888.9453125 C132.26507812 889.20634766 131.1590625 889.46738281 130.01953125 889.73632812 C124.65459032 891.042098 119.77761404 892.33939801 114.99609375 895.1328125 C115.05796875 897.0509375 115.05796875 897.0509375 115.12109375 899.0078125 C115.19140625 901.1875 115.19140625 901.1875 114.99609375 903.1328125 C112.47792102 905.65098523 110.80452467 905.40634035 107.359375 905.49609375 C102.00190834 904.67254929 97.15023813 901.73347507 92.40405273 899.2265625 C79.75734895 892.60784403 65.2493261 886.82808784 50.765625 890.734375 C50.16105469 890.94835937 49.55648438 891.16234375 48.93359375 891.3828125 C45.25348254 892.47835923 42.86918407 891.6690017 39.24609375 890.5078125 C0.89258063 878.66334521 -43.7920143 882.6598743 -82.87402344 888.75244141 C-86.00390625 889.1328125 -86.00390625 889.1328125 -92.00390625 889.1328125 C-92.33390625 884.8428125 -92.66390625 880.5528125 -93.00390625 876.1328125 C-94.32390625 877.1228125 -95.64390625 878.1128125 -97.00390625 879.1328125 C-102.24923449 880.1788241 -105.29095053 878.04181929 -109.52294922 875.27319336 C-110.78196045 874.43026733 -110.78196045 874.43026733 -112.06640625 873.5703125 C-121.78476736 867.30889389 -131.80635685 861.88640438 -142.11254883 856.68286133 C-143.34977644 856.05811399 -144.58699977 855.43335818 -145.82421875 854.80859375 C-146.73523598 854.34946342 -146.73523598 854.34946342 -147.66465759 853.88105774 C-151.62767621 851.87077398 -155.51009566 849.7498609 -159.37109375 847.55078125 C-169.48928067 841.84200586 -177.32410532 838.01399736 -189.02734375 838.16796875 C-205.10635658 838.02581638 -220.65008365 830.22607453 -232.6328125 819.9609375 C-240.6841657 813.75330439 -249.32386499 812.01520449 -259.28125 812.02734375 C-260.69728068 812.0138684 -262.11329728 811.99884178 -263.52929688 811.98242188 C-265.72095723 811.95982744 -267.91102529 811.94513748 -270.1027832 811.95776367 C-287.85735652 812.03252402 -301.15399156 806.24425132 -314.2421875 794.046875 C-326.94305241 780.77878699 -334.28937284 761.3880815 -337.671875 743.625 C-339.24428069 735.44154057 -340.67851699 728.48498917 -347.50390625 723.1953125 C-349.9358579 722.00139242 -349.9358579 722.00139242 -352.49853516 721.95825195 C-355.00390625 721.1328125 -355.00390625 721.1328125 -356.43505859 718.46948242 C-356.8161377 717.27943604 -357.1972168 716.08938965 -357.58984375 714.86328125 C-357.91696854 713.88118935 -357.91696854 713.88118935 -358.2507019 712.8792572 C-358.72545921 711.45164222 -359.19153679 710.02111874 -359.65002441 708.5881958 C-360.9059553 704.68042291 -362.24050388 700.79975403 -363.57421875 696.91796875 C-363.85140747 696.10841736 -364.12859619 695.29886597 -364.41418457 694.46478271 C-367.3678593 685.92585838 -370.74761698 677.58259359 -374.25390625 669.2578125 C-374.56608093 668.51560455 -374.87825562 667.77339661 -375.19989014 667.00869751 C-381.90670071 651.1093639 -388.94323127 635.35465225 -396 619.60839844 C-411.96308463 583.97609533 -411.96308463 583.97609533 -417.87890625 569.5078125 C-418.19472656 568.75113281 -418.51054687 567.99445312 -418.8359375 567.21484375 C-422.44735225 558.17798564 -422.13501089 549.23746252 -422.06640625 539.6328125 C-422.06189453 538.42882812 -422.05738281 537.22484375 -422.05273438 535.984375 C-422.04102575 533.03380177 -422.0246262 530.08333391 -422.00390625 527.1328125 C-418.70390625 527.1328125 -415.40390625 527.1328125 -412.00390625 527.1328125 C-408.87775755 491.52945232 -429.58704361 444.25810646 -449.00390625 415.1328125 C-449.0859375 412.3046875 -449.0859375 412.3046875 -448.81640625 408.8828125 C-448.74035156 407.78453125 -448.66429687 406.68625 -448.5859375 405.5546875 C-448.09320347 401.06545562 -447.11672403 396.680883 -446.2020874 392.262146 C-444.79489005 385.3342266 -443.82162912 378.36177427 -442.87042236 371.35910034 C-442.34507927 367.51205117 -441.79732175 363.66819296 -441.25 359.82421875 C-441.142323 359.06790665 -441.034646 358.31159454 -440.92370605 357.53236389 C-437.51651122 333.68183691 -433.45184837 309.05877554 -423.00390625 287.1328125 C-422.48038574 286.02631348 -422.48038574 286.02631348 -421.94628906 284.89746094 C-416.49607151 273.5678385 -410.29252184 263.58414843 -402.00390625 254.1328125 C-401.52163574 253.57899902 -401.03936523 253.02518555 -400.54248047 252.45458984 C-393.97250509 244.97422527 -386.94966178 238.12394902 -379.52929688 231.49658203 C-353.8579948 209.76299392 -353.8579948 209.76299392 -337.3059082 181.36694336 C-332.84433338 168.22365697 -326.21871542 159.48770711 -316.44921875 149.95703125 C-315.22017873 148.73667191 -313.99240862 147.51503245 -312.76583862 146.29219055 C-309.55679201 143.10023624 -306.32975031 139.92709869 -303.09875488 136.75738525 C-300.47508941 134.17737438 -297.86452751 131.58432688 -295.25456429 128.99046612 C-292.11530588 125.87091892 -288.97073568 122.75675558 -285.82421875 119.64453125 C-285.23454441 119.06128271 -284.64487007 118.47803417 -284.03732681 117.87711143 C-277.851959 111.7695547 -271.62262395 105.77454353 -265.00390625 100.1328125 C-263.41751336 98.67780798 -261.83370869 97.21997008 -260.25390625 95.7578125 C-243.89235155 80.99436315 -243.89235155 80.99436315 -235.99145508 81.01928711 C-235.19085159 81.01936264 -234.39024811 81.01943817 -233.56538391 81.01951599 C-232.27618294 81.02725792 -232.27618294 81.02725792 -230.9609375 81.03515625 C-230.07734055 81.0365712 -229.19374359 81.03798615 -228.28337097 81.03944397 C-225.46101497 81.04504181 -222.63873828 81.05759389 -219.81640625 81.0703125 C-217.90299594 81.07532778 -215.98958438 81.07989064 -214.07617188 81.08398438 C-209.38538611 81.09501053 -204.69465962 81.11227367 -200.00390625 81.1328125 C-199.75721191 80.47547119 -199.51051758 79.81812988 -199.25634766 79.14086914 C-193.48276612 64.16830416 -183.51251965 53.35098882 -169.05859375 46.32421875 C-160.91282882 43.1471621 -154.12322471 42.95421559 -145.51367188 43.47460938 C-136.59804519 43.74228408 -131.09466909 40.19019113 -124.6171875 34.3203125 C-123.17450631 32.93387364 -121.7409339 31.53789709 -120.31640625 30.1328125 C-106.03419089 16.27254263 -106.03419089 16.27254263 -101.00390625 16.1328125 C-99.00390625 18.1328125 -99.00390625 18.1328125 -98.80859375 22.046875 C-98.82190249 23.61730601 -98.84577023 25.18767471 -98.87890625 26.7578125 C-98.88792969 27.55960938 -98.89695312 28.36140625 -98.90625 29.1875 C-98.92984402 31.16939773 -98.9657156 33.15114231 -99.00390625 35.1328125 C-98.09511719 34.50375 -97.18632812 33.8746875 -96.25 33.2265625 C-94.98073799 32.36158395 -93.71119066 31.49702398 -92.44140625 30.6328125 C-91.85166016 30.22289062 -91.26191406 29.81296875 -90.65429688 29.390625 C-79.09848297 21.56822789 -66.55727292 15.81591235 -53.62890625 10.6953125 C-52.94601532 10.42299805 -52.26312439 10.15068359 -51.55953979 9.87011719 C-48.05982891 8.47524641 -44.55612312 7.09118613 -41.04736328 5.71923828 C-38.44110635 4.6999592 -35.84064875 3.66809793 -33.24560547 2.62060547 C-29.86316046 1.26196453 -26.46842093 -0.05846224 -23.06640625 -1.3671875 C-22.07398926 -1.77122803 -21.08157227 -2.17526855 -20.05908203 -2.59155273 C-11.96444818 -5.61186561 -7.22170434 -4.48891375 0 0 Z " fill="#D4B162" transform="translate(584.00390625,124.8671875)"/>
<path d="M0 0 C113.70338983 0 113.70338983 0 136.5859375 21.4296875 C151.01824417 36.79612405 157.63290881 55.56567284 157.2734375 76.4453125 C157.26226898 77.69361847 157.25110046 78.94192444 157.23959351 80.22805786 C157.06464809 94.12628227 156.37846202 107.99825117 155.625 121.875 C155.52090904 123.86673671 155.41682267 125.85847375 155.3134222 127.85024643 C154.47855271 143.91742854 153.55177257 159.97551992 152.4609375 176.02734375 C151.67106509 187.73045328 151.06710098 199.4450457 150.43008423 211.15725708 C150.06613368 217.83319399 149.69033584 224.50842992 149.3125 231.18359375 C147.93415119 255.59769741 146.63600192 280.0138712 145.4375 304.4375 C144.57606577 321.98643664 143.64712943 339.52068181 142.4609375 357.05078125 C141.98966966 364.03926567 141.57676836 371.03045706 141.18670654 378.02386475 C141.06244436 380.1884692 140.92771767 382.35223103 140.79150391 384.51611328 C140.2533301 393.38888251 139.93679942 402.24107944 139.80238342 411.12989807 C139.72807672 415.84792473 139.60106426 420.56425365 139.46377468 425.28082561 C139.36934756 428.64178842 139.31045276 431.9949043 139.29934692 435.35775757 C139.20250342 459.14092286 139.20250342 459.14092286 131.85926819 466.59100342 C129.2688388 468.8306855 126.59752318 470.85891093 123.76364136 472.77996826 C121.53359409 474.32264497 119.63519628 476.10246102 117.7109375 478.0078125 C117.14117188 478.54019531 116.57140625 479.07257813 115.984375 479.62109375 C114.90339039 480.63123713 113.82266494 481.64165791 112.7421875 482.65234375 C74.10501492 518.74297541 92.37894363 500 0 500 C0 335 0 170 0 0 Z " fill="#D4B162" transform="translate(400,325)"/>
<path d="M0 0 C1.03769028 -0.00137466 2.07538055 -0.00274933 3.14451599 -0.00416565 C4.85894142 0.00122726 4.85894142 0.00122726 6.60800171 0.00672913 C8.40797356 0.00651009 8.40797356 0.00651009 10.24430847 0.00628662 C13.53956391 0.00686495 16.83475712 0.01188887 20.13000154 0.01886058 C23.57199706 0.02510124 27.01399335 0.02569848 30.45599365 0.02688599 C36.97601466 0.02999719 43.49601894 0.03820776 50.01603258 0.04823548 C57.43794268 0.05940313 64.85985358 0.06490871 72.28176999 0.06993091 C87.55116976 0.08039054 102.8205465 0.09873341 118.0899353 0.12025452 C118.0899353 11.67025452 118.0899353 23.22025452 118.0899353 35.12025452 C95.96925596 38.2241852 73.84875995 41.3192805 51.70321655 44.24134827 C47.30260252 44.82273151 42.90446061 45.41910014 38.50790405 46.03041077 C37.48285767 46.17261047 36.45781128 46.31481018 35.40170288 46.46131897 C33.51189378 46.72446888 31.62238079 46.98975885 29.73324585 47.25770569 C28.49828369 47.42943298 28.49828369 47.42943298 27.2383728 47.60462952 C26.52858276 47.70485413 25.81879272 47.80507874 25.0874939 47.90834045 C23.0899353 48.12025452 23.0899353 48.12025452 19.0899353 48.12025452 C20.36899266 74.08374699 20.36899266 74.08374699 22.33944702 100.00111389 C23.18647936 109.62392965 23.69074353 119.26139057 24.21392822 128.9059906 C24.77877262 139.26963924 25.49187601 149.60296117 26.40805054 159.94252014 C27.09166702 167.77167039 27.51746862 175.59828086 27.8711853 183.44837952 C28.18229883 190.34472939 28.63776817 197.23192118 29.0899353 204.12025452 C29.67734497 204.21387268 30.26475464 204.30749084 30.8699646 204.40394592 C39.19859692 205.81896316 47.34686903 207.82865442 55.53158569 209.8966217 C57.88653277 210.49123917 60.24297521 211.07960602 62.59970093 211.66712952 C69.25714664 213.33483668 75.8917679 215.03381103 82.47665405 216.97181702 C89.78724908 219.10691523 97.17521133 220.91882941 104.56576538 222.75453186 C105.88005466 223.08187246 107.19431728 223.4093201 108.50855255 223.73687744 C111.70208684 224.53238719 114.8958863 225.32681441 118.0899353 226.12025452 C118.20412545 256.23573283 118.29254918 286.3512037 118.34526195 316.46685089 C118.3515151 320.02644933 118.35798675 323.58604734 118.36459351 327.14564514 C118.36656083 328.20857303 118.36656083 328.20857303 118.36856791 329.2929742 C118.39029383 340.75008575 118.42969971 352.2070712 118.47569928 363.66410807 C118.52254249 375.42984726 118.55024726 387.19552064 118.56037778 398.96134925 C118.5666084 405.56596132 118.58215474 412.17033933 118.61858559 418.7748642 C118.65262498 424.99648832 118.66297197 431.21771039 118.65547371 437.43941879 C118.65684468 439.7177817 118.66672922 441.99615862 118.68596268 444.27444077 C118.80467341 459.06684031 118.62809657 471.28342797 107.7774353 482.49525452 C107.29669556 482.99291321 106.81595581 483.4905719 106.32064819 484.00331116 C98.93234956 491.50734051 88.89359675 499.6230827 77.91106796 500.24330235 C76.72195501 500.24191966 76.72195501 500.24191966 75.50881958 500.24050903 C74.59459229 500.2418837 73.68036499 500.24325836 72.73843384 500.24467468 C71.24518585 500.23928177 71.24518585 500.23928177 69.72177124 500.23377991 C68.14081665 500.23399895 68.14081665 500.23399895 66.52792358 500.23422241 C63.04336491 500.23352561 59.55885965 500.22574405 56.0743103 500.21791077 C53.65864084 500.21604576 51.242971 500.21462225 48.82730103 500.21362305 C42.46838334 500.20980437 36.10948849 500.1999796 29.75057983 500.18891907 C22.12140372 500.1768928 14.49221998 500.17229961 6.86303711 500.16646576 C-4.72801271 500.15676754 -16.31901243 500.13760639 -27.9100647 500.12025452 C-27.9100647 484.28025452 -27.9100647 468.44025452 -27.9100647 452.12025452 C4.4299353 452.12025452 36.7699353 452.12025452 70.0899353 452.12025452 C69.35388062 444.03525452 68.61782593 435.95025452 67.85946655 427.62025452 C67.31956767 421.68716101 66.7797296 415.75406199 66.23997593 409.82095528 C65.54919695 402.22782632 64.85829048 394.63470904 64.1668396 387.04164124 C63.92439365 384.37904488 63.68196399 381.71644705 63.43954468 379.05384827 C63.37947353 378.39408871 63.31940238 377.73432915 63.2575109 377.05457687 C62.58954733 369.71756463 61.92266977 362.38045581 61.25842285 355.04310608 C61.19856001 354.38190451 61.13869716 353.72070293 61.07702029 353.03946495 C60.77580749 349.7122463 60.4746834 346.38501965 60.17364693 343.05778503 C59.508421 335.7127079 58.83812301 328.36813549 58.16119868 321.02412891 C57.62424076 315.19716578 57.09242165 309.36974242 56.56223106 303.54216003 C56.34143463 301.12619107 56.11876005 298.71039288 55.89405251 296.29478455 C55.58415653 292.96100125 55.28100997 289.62666579 54.9793396 286.29212952 C54.84299008 284.85266716 54.84299008 284.85266716 54.70388603 283.38412476 C54.10136689 276.61674982 53.99479394 269.91241976 54.0899353 263.12025452 C53.06368042 262.98272766 53.06368042 262.98272766 52.01669312 262.84242249 C41.85603295 261.42535121 32.03471273 258.58440893 22.1421814 255.93470764 C17.29699636 254.64183152 12.44319794 253.38239429 7.5899353 252.12025452 C5.70189952 251.62682215 3.81387877 251.13333224 1.9258728 250.63978577 C-2.19151123 249.56516678 -6.3117236 248.50210723 -10.4335022 247.44447327 C-11.49633423 247.17054749 -12.55916626 246.8966217 -13.65420532 246.61439514 C-15.7068687 246.08554301 -17.76023342 245.559404 -19.81436157 245.03627014 C-21.18817993 244.68145569 -21.18817993 244.68145569 -22.5897522 244.31947327 C-23.40170044 244.11153137 -24.21364868 243.90358948 -25.05020142 243.68934631 C-26.9100647 243.12025452 -26.9100647 243.12025452 -27.9100647 242.12025452 C-28.01903566 239.39098121 -28.06231074 236.68662981 -28.06396484 233.95648193 C-28.0683471 233.09021409 -28.07272935 232.22394625 -28.0772444 231.33142787 C-28.09068484 228.405159 -28.09682315 225.47892029 -28.10293579 222.55262756 C-28.11083306 220.4636013 -28.11910177 218.37457641 -28.12771606 216.28555298 C-28.15399441 209.40103976 -28.16925619 202.51652031 -28.1835022 195.63197327 C-28.18886076 193.26321216 -28.19423827 190.8944511 -28.19963455 188.52569008 C-28.22127779 178.66828661 -28.24001214 168.8108848 -28.25125694 158.95346355 C-28.26747679 144.82656836 -28.30059052 130.69994912 -28.35765779 116.57315797 C-28.39640322 106.64267147 -28.4158955 96.71225861 -28.42117751 86.78169852 C-28.42482655 80.85113288 -28.43679956 74.92086116 -28.46928024 68.99037743 C-28.49943901 63.40317023 -28.50564463 57.81643353 -28.49389648 52.22916222 C-28.49367636 50.18462365 -28.50193053 48.14006278 -28.51955032 46.09560013 C-28.63598811 31.79981517 -27.35334061 20.54481881 -17.88272095 9.09681702 C-12.86926858 4.07343702 -7.17260165 -0.00730407 0 0 Z " fill="#D3B162" transform="translate(639.9100646972656,324.87974548339844)"/>
<path d="M0 0 C1.32538775 0.61747323 2.65090849 1.2346611 3.9765625 1.8515625 C19.34425734 9.13736639 33.67676888 18.45488756 47 29 C48.23943359 29.93392578 48.23943359 29.93392578 49.50390625 30.88671875 C56.06236198 35.98328969 61.92370389 41.71577874 67.8125 47.5625 C68.62533447 48.36606934 69.43816895 49.16963867 70.27563477 49.99755859 C78.18238846 57.94587102 84.06825036 66.47960355 89.9375 76 C91.26943401 78.14589369 92.60146806 80.29172529 93.93359375 82.4375 C94.60890137 83.52804688 95.28420898 84.61859375 95.97998047 85.7421875 C99.13906658 90.83704429 102.32006975 95.91813752 105.5 101 C106.75011719 102.99992675 108.0001169 104.99992695 109.25 107 C109.86875 107.99 110.4875 108.98 111.125 110 C131.75 143 131.75 143 133.62524414 146.00048828 C134.87431328 147.99893384 136.12349934 149.99730634 137.37280273 151.99560547 C140.51301136 157.01879335 143.65112918 162.0432652 146.78515625 167.0703125 C147.72246582 168.5711438 147.72246582 168.5711438 148.67871094 170.10229492 C149.92997809 172.11006302 151.17676256 174.12063205 152.41894531 176.1340332 C155.476829 181.06981248 158.60404919 185.9135315 161.94921875 190.66015625 C162.58722412 191.59005371 163.22522949 192.51995117 163.88256836 193.47802734 C165.06391361 195.19205135 166.27386722 196.88700026 167.52172852 198.55322266 C173.04391125 206.67595394 173.63351967 215.51522424 174.67089844 225.03781128 C175.00550797 228.04957631 175.38103787 231.05357357 175.76953125 234.05883789 C176.44526059 239.28689659 177.09574232 244.51759235 177.73486328 249.75024414 C178.12771368 252.95966966 178.52661955 256.16830716 178.92578125 259.37695312 C181.03316246 276.45172222 182.15113275 293.17690115 182.0625 310.375 C182.05746967 312.09374868 182.05290951 313.8124988 182.04882812 315.53125 C182.0379561 319.68753651 182.02077804 323.8437517 182 328 C186.40901509 326.412863 188.0375981 325.05196217 190.5625 321.0625 C192.72850214 317.66592851 194.54477686 315.14096649 198 313 C198.66 313 199.32 313 200 313 C199.82984375 313.55945313 199.6596875 314.11890625 199.484375 314.6953125 C198.95625532 316.44260207 198.43345166 318.19150165 197.9140625 319.94140625 C197.31896114 321.93270695 196.71025313 323.92000823 196.0859375 325.90234375 C188.09882826 352.16889405 183.87580128 380.58741991 183 408 C177.93112406 402.93112406 179.811037 392.77757405 179.81030273 385.98449707 C179.81102783 385.22648804 179.81175293 384.468479 179.8125 383.6875 C179.81141235 382.54057678 179.81141235 382.54057678 179.81030273 381.3704834 C179.81133965 371.51410755 180.05449489 361.86951916 181.5625 352.109375 C181.99595886 349.02872092 182.07530514 346.10633707 182 343 C181.443125 343.66 180.88625 344.32 180.3125 345 C178 347 178 347 175.4375 347.5 C173 347 173 347 171.37109375 345.34765625 C169.65165221 342.40354126 169.73213313 340.32867568 169.625 336.9375 C168.94443766 331.8018279 167.80353064 329.21063275 163.77368164 325.87182617 C162.61999002 324.98906855 161.46417633 324.1090783 160.30639648 323.23168945 C149.67965286 315.12230396 142.58774841 303.45868966 136 292 C135.22045 290.72241337 134.44048772 289.44507822 133.66015625 288.16796875 C127.21829132 277.31033112 127.21829132 277.31033112 128.4375 272 C128.68371094 271.38125 128.92992187 270.7625 129.18359375 270.125 C132.79478704 260.72553038 132.57738561 246.81766422 128.9375 237.4375 C124.96189405 229.354135 120.04240541 224.57952028 112.5625 219.6875 C98.24797293 210.09717237 94.38708468 195.64806767 89 180 C88.70561035 179.18692383 88.4112207 178.37384766 88.10791016 177.53613281 C85.31922835 169.66439095 84.84398854 162.30094062 84.9375 154 C84.94201172 153.22527344 84.94652344 152.45054687 84.95117188 151.65234375 C84.96280242 149.76819476 84.98073094 147.88408635 85 146 C83.80761719 146.56589844 82.61523438 147.13179687 81.38671875 147.71484375 C79.82035469 148.45581836 78.25394612 149.19669888 76.6875 149.9375 C75.90181641 150.31068359 75.11613281 150.68386719 74.30664062 151.06835938 C73.54931641 151.42607422 72.79199219 151.78378906 72.01171875 152.15234375 C70.96697388 152.6472229 70.96697388 152.6472229 69.90112305 153.15209961 C65.89633476 154.93823416 62.32337794 155.91901749 58 155 C54.06229132 153.08197667 50.55261897 150.54285382 47 148 C46.35095703 147.53867676 45.70191406 147.07735352 45.03320312 146.60205078 C40.45564166 143.34037944 35.90756218 140.03924517 31.3671875 136.72607422 C27.56448266 133.95326861 23.75182315 131.19429263 19.9375 128.4375 C19.19298584 127.89915527 18.44847168 127.36081055 17.68139648 126.80615234 C11.95245001 122.67075772 6.18627461 118.59027385 0.40527344 114.52807617 C-5.57721118 110.31743416 -11.50654804 106.03536149 -17.41015625 101.71484375 C-22.43409669 98.06021038 -27.56526306 94.5908496 -32.74438477 91.16015625 C-35.55333234 89.29637161 -38.35277721 87.41985453 -41.14761353 85.5350647 C-55.20211655 76.05725415 -69.29098503 66.70374943 -83.88671875 58.0703125 C-87.15190719 56.13875838 -90.32562054 54.13335917 -93.45703125 51.9921875 C-102.90280629 45.67786249 -110.43951935 44.00309243 -121.72265625 43.39453125 C-143.06235278 42.12957952 -161.72404401 32.67743934 -175.84765625 16.94140625 C-179.37431434 12.21627383 -179.68477401 7.57182123 -179.421875 1.7734375 C-178.64662741 -3.32309759 -176.21578653 -5.90579212 -172.5 -9.25 C-163.76034648 -15.36775746 -152.30116039 -14.67919739 -142 -14 C-139.0378036 -13.27421969 -136.75103716 -12.34744677 -134 -11 C-133.81050781 -11.90878906 -133.81050781 -11.90878906 -133.6171875 -12.8359375 C-132.4085125 -17.07394985 -129.57502334 -19.6166511 -126 -22 C-123.08935547 -22.40087891 -123.08935547 -22.40087891 -119.4921875 -22.6015625 C-118.83523895 -22.63827057 -118.17829041 -22.67497864 -117.50143433 -22.71279907 C-75.06960107 -24.91302322 -38.55542912 -18.56231199 0 0 Z " fill="#D4B162" transform="translate(823,172)"/>
<path d="M0 0 C1.20348083 -0.00218285 1.20348083 -0.00218285 2.43127441 -0.00440979 C4.12235151 -0.00275473 5.81344428 0.00876253 7.50439453 0.02954102 C10.08561505 0.05850248 12.66478045 0.05014134 15.24609375 0.03710938 C16.8932391 0.04334735 18.54037799 0.05173875 20.1875 0.0625 C20.95533813 0.05956436 21.72317627 0.05662872 22.51428223 0.05360413 C27.08449452 0.13364448 30.03048983 0.58459208 33.59375 3.49609375 C34.16378784 6.3210907 34.16378784 6.3210907 34.08544922 9.8112793 C34.06823822 11.12502533 34.05102722 12.43877136 34.03329468 13.79232788 C33.98885619 15.23917196 33.94388867 16.68599988 33.8984375 18.1328125 C33.86946154 19.63249746 33.84269871 21.13222663 33.81802368 22.63198853 C33.7457009 26.64982839 33.64247888 30.66633488 33.53341675 34.68332291 C33.42529789 38.86362325 33.34600964 43.04446859 33.26367188 47.2253418 C33.08599165 55.99219474 32.87092274 64.75783848 32.64427185 73.52354431 C32.55392674 77.05093267 32.4700127 80.57847322 32.38604736 84.10601807 C32.25760709 89.40188367 32.12625716 94.69762381 31.97653198 99.99293518 C31.60784188 113.28208984 31.42217928 126.57203558 31.24331665 139.86489487 C30.64124974 184.24185971 29.71181318 228.61264503 28.79673624 272.98403066 C28.61383761 281.86549571 28.43449776 290.74703019 28.25588703 299.62858236 C28.08042391 308.34700479 27.90273041 317.06537989 27.72329998 325.78372157 C27.61749365 330.92593307 27.51248065 336.06815722 27.40969849 341.21043015 C27.31374995 346.0064111 27.21497859 350.80232629 27.11417007 355.59820747 C27.07812538 357.3342102 27.04301158 359.0702326 27.00899887 360.80627632 C26.91587678 365.54314133 26.79859994 370.27841802 26.65714645 375.01408339 C26.58790371 377.72497951 26.55401483 380.43546431 26.51785278 383.14699173 C26.47215374 385.03882958 26.42529392 386.9306398 26.37719727 388.82241821 C26.37323661 389.69958602 26.36927595 390.57675383 26.36519527 391.48050249 C26.17113753 397.51601396 25.01316481 400.32058247 20.59375 404.49609375 C18.19921875 405.484375 18.19921875 405.484375 15.78125 405.80859375 C14.47027344 406.00001953 14.47027344 406.00001953 13.1328125 406.1953125 C12.29492188 406.29457031 11.45703125 406.39382813 10.59375 406.49609375 C8.6446875 406.80546875 8.6446875 406.80546875 6.65625 407.12109375 C3.41162006 407.47061689 0.16713229 407.68216917 -3.09375 407.80859375 C-3.98449219 407.84597656 -4.87523437 407.88335938 -5.79296875 407.921875 C-9.36865485 407.33928937 -10.86297668 406.05747316 -13.40625 403.49609375 C-14.03299582 400.44550276 -14.03299582 400.44550276 -14.0354557 396.78374481 C-14.04635651 395.76812767 -14.04635651 395.76812767 -14.05747753 394.73199302 C-14.07579548 392.45223868 -14.058343 390.17415256 -14.04116821 387.89440918 C-14.04692678 386.2480036 -14.05486612 384.60160444 -14.06480443 382.95521879 C-14.08573755 378.42257672 -14.07533343 373.89045887 -14.05987334 369.35781455 C-14.04859009 364.4729271 -14.06600747 359.58813167 -14.07977295 354.70326233 C-14.10204231 345.13049288 -14.09718772 335.55791909 -14.08270974 325.98514187 C-14.07143203 318.20731758 -14.06988024 310.42954825 -14.07532883 302.65171814 C-14.07609499 301.54604586 -14.07686116 300.44037357 -14.07765054 299.30119607 C-14.07924912 297.05526211 -14.08087018 294.80932817 -14.0825135 292.56339425 C-14.09678183 271.4878807 -14.08036126 250.41247578 -14.05351166 229.33698004 C-14.03117192 211.24103775 -14.03505175 193.14525581 -14.05810547 175.04931641 C-14.08484432 154.05082256 -14.09540843 133.05242399 -14.08004415 112.0539155 C-14.07845135 109.81610014 -14.0768795 107.57828476 -14.07532883 105.34046936 C-14.07455745 104.23933216 -14.07378607 103.13819497 -14.07299132 102.00368997 C-14.06866857 94.23241216 -14.07597324 86.46119463 -14.08772659 78.68992615 C-14.10172886 69.22330695 -14.09799958 59.75689512 -14.07132287 50.29029977 C-14.05815404 45.45737438 -14.05308435 40.6247951 -14.06956863 35.79187202 C-14.08441798 31.37153567 -14.07636361 26.95186774 -14.04968087 22.53159243 C-14.04407449 20.92869721 -14.04698443 19.32574604 -14.05905981 17.7228865 C-14.07417552 15.55059227 -14.05877002 13.38061409 -14.0354557 11.20844269 C-14.03464394 10.00006257 -14.03383218 8.79168244 -14.03299582 7.54668474 C-13.40625 4.49609375 -13.40625 4.49609375 -11.1097225 2.10792875 C-7.44299725 -0.07820634 -4.14670794 -0.06066907 0 0 Z " fill="#2B3140" transform="translate(463.40625,370.50390625)"/>
<path d="M0 0 C3.75975825 0.92857587 4.85246985 1.76648421 6.95703125 5.09765625 C7.59230983 6.41128314 8.20982883 7.73359747 8.8125 9.0625 C9.14507812 9.76117187 9.47765625 10.45984375 9.8203125 11.1796875 C10.52640671 12.6685678 11.2249318 14.1610573 11.91650391 15.65673828 C13.02701788 18.0584312 14.15747744 20.44986819 15.29296875 22.83984375 C17.21189896 26.88561964 19.11081212 30.94025582 21 35 C15.35067428 33.22338446 11.65028367 31.50598631 8.3125 26.4375 C7.15324203 23.40134818 6.61413354 20.93161175 6.125 17.75 C5.30432722 12.57834652 3.54869555 8.55761479 1.0234375 3.99609375 C0 2 0 2 0 0 Z " fill="#363A42" transform="translate(205,698)"/>
<path d="M0 0 C0.99 0 1.98 0 3 0 C5.32655091 5.98410537 7.42934122 11.58008874 8 18 C6.30541393 16.35525469 4.64385754 14.69469849 3 13 C2.43796875 12.4225 1.8759375 11.845 1.296875 11.25 C0.74515625 10.651875 0.1934375 10.05375 -0.375 9.4375 C-0.89835938 8.87933594 -1.42171875 8.32117188 -1.9609375 7.74609375 C-3 6 -3 6 -2.7890625 3.91015625 C-2 2 -2 2 0 0 Z " fill="#383B43" transform="translate(194,699)"/>
</svg>
